# xmcd CD database file
#
# Track frame offsets:
#	150
#	35715
#	54472
#	98956
#	138422
#	162512
#	195180
#	217886
#	253779
#	282997
#
# Disc length: 4059 seconds
#
# Revision: 0
# Processed by: cddbd v1.5.2PL0 Copyright (c) Steve Scherf et al.
# Submitted via: CDex 1.70beta2
#
DISCID=900fd90a
DTITLE=Martin Jaobsen quartet - Current State
DYEAR=2002
DGENRE=Jazz
TTITLE0=Witchcraft
TTITLE1=Backwater
TTITLE2=Stairway to the stars
TTITLE3=Forest flower
TTITLE4=This I dig of you
TTITLE5=Everything I love
TTITLE6=Arrival
TTITLE7=Polkadots and Moonbeams
TTITLE8=Funk in deep freeze
TTITLE9=Current state
EXTD=YEAR: 2002
EXTT0=
EXTT1=
EXTT2=
EXTT3=
EXTT4=
EXTT5=
EXTT6=
EXTT7=
EXTT8=
EXTT9=
PLAYORDER=
